<?xml version="1.0" standalone="no"?>
<!DOCTYPE svg PUBLIC "-//W3C//DTD SVG 20010904//EN"
 "http://www.w3.org/TR/2001/REC-SVG-20010904/DTD/svg10.dtd">
<svg version="1.0" xmlns="http://www.w3.org/2000/svg"
 width="1563.000000pt" height="1563.000000pt" viewBox="0 0 1563.000000 1563.000000"
 preserveAspectRatio="xMidYMid meet">

<g transform="translate(0.000000,1563.000000) scale(0.100000,-0.100000)"
fill="#000000" stroke="none">
<path d="M6165 12053 c-257 -57 -454 -224 -553 -468 -30 -73 -37 -83 -83 -110
-28 -16 -79 -60 -113 -96 -200 -214 -255 -498 -165 -844 30 -114 74 -204 169
-344 96 -143 116 -190 129 -303 21 -184 -17 -341 -176 -733 -203 -503 -253
-676 -201 -708 13 -9 24 -5 50 16 86 70 190 147 198 147 4 0 -1 -28 -11 -62
-21 -65 -22 -109 -3 -115 6 -2 55 26 110 63 233 156 458 238 869 316 107 20
150 23 395 23 238 -1 292 -4 401 -22 139 -25 376 -83 434 -107 21 -9 45 -16
55 -16 19 0 227 -139 490 -329 108 -78 219 -169 292 -238 114 -110 143 -128
154 -98 5 11 10 12 26 4 35 -19 43 4 48 134 4 96 9 129 23 151 l19 28 106
-106 c59 -58 125 -119 147 -137 105 -83 349 -232 401 -245 13 -3 22 -9 19 -14
-6 -10 176 -95 255 -118 230 -69 549 -49 736 46 80 41 141 104 178 182 42 89
48 218 17 370 -46 234 -49 326 -15 585 8 66 18 140 21 165 l5 45 45 -50 c54
-61 115 -183 145 -291 20 -71 22 -102 23 -319 0 -312 -14 -380 -158 -740 -52
-131 -98 -279 -129 -420 -9 -40 -13 -135 -13 -290 1 -199 4 -244 23 -331 30
-139 84 -290 144 -406 28 -53 49 -101 47 -107 -3 -7 -53 31 -113 84 -60 53
-110 94 -112 92 -8 -8 36 -119 82 -207 25 -50 44 -93 41 -97 -3 -3 -70 -23
-149 -44 -148 -41 -619 -196 -755 -250 -105 -41 -113 -43 -78 -22 112 67 179
165 155 229 -9 22 -57 43 -84 36 -5 -2 -5 5 -2 15 15 38 18 112 6 147 -16 49
-57 70 -124 63 -97 -10 -187 -56 -375 -192 -42 -31 -88 -32 -143 -4 -66 34
-147 59 -224 70 -68 9 -72 11 -135 72 -36 36 -88 75 -119 89 -67 31 -162 52
-206 45 -29 -5 -32 -3 -24 11 20 35 180 382 200 433 38 94 23 192 -30 206 -13
3 -19 18 -23 58 -7 70 -38 139 -73 162 -66 43 -183 5 -280 -92 -43 -43 -69
-85 -138 -226 -89 -182 -140 -323 -183 -499 -22 -92 -25 -121 -21 -242 l3
-137 -25 17 c-108 73 -225 102 -336 83 -109 -19 -163 -68 -184 -168 -18 -82
-3 -119 81 -198 40 -37 106 -89 148 -117 127 -83 157 -112 196 -191 32 -64 39
-93 58 -239 l23 -166 -29 -41 c-41 -60 -67 -144 -67 -219 0 -50 -4 -68 -17
-78 -15 -10 -18 -28 -18 -91 0 -121 12 -133 147 -148 51 -6 57 -9 66 -35 14
-40 37 -49 176 -71 213 -34 270 -53 369 -126 91 -66 293 -186 314 -186 7 0 10
-3 8 -7 -7 -12 183 -95 280 -123 154 -45 264 -59 460 -59 244 -1 383 13 640
63 424 83 866 284 1269 577 343 250 565 549 661 891 25 91 32 132 60 365 15
120 20 138 71 248 121 261 160 443 151 693 -7 179 -21 263 -92 540 -30 116
-61 264 -69 330 -24 180 -25 185 -42 185 -8 0 -21 -14 -28 -31 -13 -30 -13
-30 -24 40 -21 126 -10 281 28 405 11 33 17 62 14 65 -10 11 -112 -110 -152
-181 -200 -354 -250 -767 -141 -1166 12 -41 18 -76 15 -79 -11 -11 -120 63
-192 130 -71 66 -199 240 -189 257 3 4 -2 27 -11 51 -56 157 -75 310 -84 664
-9 346 -12 368 -72 512 -17 40 -34 70 -38 68 -4 -3 -11 7 -15 22 -12 49 -71
167 -120 243 -61 91 -209 247 -290 305 -85 61 -192 125 -209 125 -10 0 -16 21
-21 83 -13 164 -64 350 -111 407 -7 8 -23 42 -37 76 -55 136 -131 227 -307
369 -130 104 -224 200 -297 307 -50 72 -118 194 -118 213 -1 6 -17 44 -37 85
-19 41 -48 102 -63 135 -41 86 -146 262 -196 326 -231 295 -565 556 -914 712
-330 148 -622 220 -895 220 -170 1 -230 -8 -485 -70 -284 -69 -392 -65 -613
21 -50 20 -110 40 -134 46 -43 9 -175 12 -213 3z m315 -216 c232 -91 353 -95
661 -22 230 55 300 65 460 65 514 0 1138 -271 1562 -679 117 -112 266 -311
332 -441 56 -110 173 -380 165 -380 -16 0 -139 140 -188 215 -28 43 -79 144
-114 226 -39 93 -65 144 -70 136 -13 -21 -9 -154 8 -235 50 -244 247 -476 581
-683 398 -247 508 -395 529 -714 5 -70 0 -130 -20 -267 -14 -97 -26 -215 -26
-262 0 -94 22 -283 45 -379 49 -207 -17 -330 -219 -407 -264 -101 -628 -72
-899 73 -177 94 -385 277 -544 476 -89 113 -97 135 -67 194 9 18 18 34 20 35
1 2 31 -21 66 -50 260 -221 501 -330 728 -331 213 -1 344 100 410 316 10 31
13 32 -73 -26 -221 -148 -415 -154 -692 -22 -203 97 -349 216 -523 424 -52 62
-132 155 -178 205 -46 50 -84 94 -84 98 0 5 78 8 173 8 339 0 578 64 742 198
55 45 144 156 134 166 -2 3 -58 -18 -123 -45 -359 -149 -687 -192 -1022 -134
-139 24 -155 31 -230 91 -89 71 -284 202 -380 255 -41 23 -80 51 -87 63 -16
28 -15 284 2 386 20 125 131 597 157 665 l7 20 -23 -20 c-61 -53 -172 -250
-229 -407 -81 -222 -79 -376 7 -550 21 -43 35 -78 32 -78 -4 0 -56 22 -116 49
-227 102 -402 145 -649 162 -82 6 -160 14 -172 19 -45 18 -133 238 -158 394
-39 239 1 477 152 905 10 28 -57 -41 -97 -100 -76 -110 -144 -260 -182 -401
-19 -72 -22 -108 -23 -263 0 -157 3 -190 23 -258 22 -77 77 -197 113 -249 11
-14 19 -30 19 -36 0 -5 -37 -12 -81 -16 -242 -20 -407 -73 -699 -223 -3 -2
-18 38 -34 88 -22 72 -46 116 -112 214 -46 68 -94 145 -107 172 -80 158 -110
385 -68 519 26 86 65 154 126 222 83 92 80 96 80 -111 0 -198 12 -274 64 -430
38 -112 135 -306 147 -294 3 2 -15 85 -40 183 -52 214 -74 335 -82 469 -19
306 89 561 307 727 134 101 215 130 354 124 79 -3 105 -9 205 -49z m507 -1811
c219 -46 392 -115 618 -246 258 -148 447 -292 661 -505 154 -153 344 -371 344
-395 0 -8 -9 -39 -21 -69 -38 -101 -81 -294 -86 -391 -6 -109 -14 -130 -48
-130 -30 0 -182 114 -320 240 -339 309 -671 472 -1095 536 -166 25 -582 26
-739 1 -328 -52 -606 -154 -894 -329 -54 -33 -100 -58 -103 -56 -6 7 58 189
110 310 159 374 226 595 226 754 0 37 6 59 21 78 39 50 247 142 421 186 162
42 248 49 523 45 233 -3 273 -6 382 -29z m4051 -1748 c34 -102 36 -119 37
-443 1 -254 4 -327 19 -405 52 -270 177 -515 342 -671 104 -98 224 -167 369
-211 112 -35 145 -40 151 -25 2 7 -11 67 -30 133 -56 194 -69 296 -64 501 3
129 9 197 22 246 10 37 22 67 27 67 12 0 74 -133 103 -225 45 -137 59 -237 59
-400 0 -300 -76 -531 -258 -786 -126 -176 -208 -353 -245 -533 -11 -48 -20
-89 -22 -91 -41 -34 -233 -156 -363 -230 -689 -392 -1434 -661 -2192 -790
-199 -34 -373 -45 -508 -34 -255 20 -346 76 -336 204 8 98 190 302 405 455
479 340 1280 702 1983 894 l132 36 148 -147 c198 -198 361 -326 443 -348 19
-5 13 3 -25 35 -80 68 -325 321 -325 336 0 16 11 18 25 6 21 -18 185 -102 185
-94 0 4 -32 64 -72 133 -145 251 -245 484 -298 695 -44 174 -54 254 -54 434
-1 206 9 244 109 445 82 164 125 284 154 427 22 108 41 282 41 380 0 37 4 68
8 68 5 0 18 -28 30 -62z m-2613 -1164 c31 -20 47 -71 39 -125 -8 -60 -58 -186
-116 -294 -74 -136 -127 -259 -148 -344 -38 -146 -109 -446 -117 -490 l-8 -44
-39 63 c-22 35 -77 102 -123 149 -49 51 -83 94 -83 106 0 63 77 355 136 514
45 120 134 296 184 362 40 54 97 100 145 117 37 14 98 7 130 -14z m125 -926
c106 -55 135 -150 85 -288 -14 -41 -33 -95 -42 -120 -8 -25 -21 -58 -28 -75
-6 -16 -18 -45 -25 -62 -28 -72 -130 -133 -202 -119 -43 8 -101 55 -122 100
-44 92 13 354 109 507 51 79 137 101 225 57z m1120 -30 c32 -34 24 -114 -17
-171 -75 -105 -334 -270 -428 -271 l-39 -1 -3 122 -3 123 47 34 c138 100 314
184 390 185 21 1 40 -7 53 -21z m-715 -127 c52 -23 102 -81 111 -127 19 -100
-17 -240 -85 -336 -57 -79 -109 -111 -185 -116 -79 -4 -119 19 -137 77 -11 38
-9 51 44 213 31 95 61 197 67 226 7 29 18 59 27 67 20 21 109 19 158 -4z
m-1323 -21 c119 -37 252 -150 310 -264 24 -46 36 -150 19 -160 -21 -14 -11
-26 22 -26 62 0 127 -44 254 -172 114 -116 121 -126 132 -178 7 -34 8 -77 3
-112 -5 -32 -6 -58 -3 -58 13 0 29 17 59 59 35 48 42 101 21 160 -15 41 2 81
46 116 19 14 37 25 40 25 4 0 27 -18 52 -39 44 -39 116 -71 159 -71 40 0 35
-17 -13 -46 -112 -64 -316 -209 -382 -270 l-72 -67 -77 13 c-210 34 -347 107
-401 214 -12 25 -31 89 -42 142 -11 58 -32 120 -51 156 -39 74 -123 152 -212
198 -128 66 -185 136 -186 226 0 91 101 172 216 174 23 0 71 -9 106 -20z
m4248 -258 c-22 -38 -64 -87 -111 -128 -13 -12 -34 -34 -45 -49 -13 -17 -24
-23 -28 -17 -3 6 8 26 27 44 18 18 52 59 76 91 39 51 85 97 98 97 2 0 -5 -17
-17 -38z m-4034 -973 c18 -20 25 -21 137 -15 64 4 117 4 117 2 0 -14 -209 -86
-248 -86 -14 0 -27 29 -35 83 -7 42 1 46 29 16z"/>
<path d="M11111 6462 c73 -51 79 -54 79 -45 0 11 -105 83 -121 83 -7 0 12 -17
42 -38z"/>
<path d="M6747 8773 c-43 -42 111 -225 268 -320 112 -67 178 -86 495 -138 238
-39 251 -34 80 31 -248 93 -399 171 -640 329 -165 109 -184 118 -203 98z"/>
<path d="M6120 8498 c-112 -12 -265 -54 -343 -95 -67 -35 -167 -116 -157 -126
3 -3 43 8 89 23 46 16 122 33 170 39 338 44 394 56 425 90 21 23 15 36 -22 55
-39 20 -76 23 -162 14z"/>
<path d="M5810 8057 c-102 -31 -173 -71 -241 -137 -72 -70 -114 -146 -135
-239 -32 -141 -6 -265 82 -394 l47 -68 -22 -23 c-30 -32 -17 -38 83 -44 l81
-4 42 -46 43 -45 282 7 c156 4 301 12 323 17 79 21 162 140 185 268 19 104 -2
193 -77 326 -6 11 -28 56 -49 100 -43 92 -136 192 -221 238 -123 66 -290 83
-423 44z m283 -22 c177 -46 319 -182 363 -349 41 -151 -11 -328 -131 -446
l-55 -54 -86 17 c-103 21 -335 47 -424 47 -36 0 -85 -5 -110 -11 l-45 -10 -39
43 c-127 143 -151 350 -58 522 57 105 189 207 313 240 71 19 201 20 272 1z
m414 -427 c-3 -8 -6 -5 -6 6 -1 11 2 17 5 13 3 -3 4 -12 1 -19z"/>
<path d="M6090 7754 c-75 -32 -110 -86 -110 -167 0 -68 37 -124 102 -156 146
-70 317 66 268 214 -33 99 -160 153 -260 109z m201 -65 c17 -33 -3 -69 -40
-69 -31 0 -61 22 -61 45 0 43 80 62 101 24z"/>
<path d="M7550 7821 c-203 -42 -315 -105 -518 -290 -107 -97 -121 -122 -45
-76 146 87 334 147 516 166 120 13 321 0 432 -26 83 -20 92 -20 71 4 -29 32
-148 89 -210 100 -33 6 -109 11 -170 11 -69 0 -106 4 -100 9 5 6 52 33 104 61
52 29 99 56 105 61 16 16 -43 9 -185 -20z"/>
<path d="M7584 7560 c-31 -12 -39 -30 -15 -30 30 0 51 11 51 26 0 16 -6 16
-36 4z"/>
<path d="M10163 7530 c-119 -54 -105 -197 24 -246 35 -14 53 -15 89 -7 35 8
42 8 34 -2 -7 -8 -7 -21 -1 -38 20 -51 86 -63 126 -22 32 31 31 50 -1 82 -19
19 -33 24 -55 21 -27 -4 -28 -3 -13 13 9 10 18 37 21 61 6 58 -21 106 -77 135
-52 28 -91 29 -147 3z"/>
<path d="M7697 7282 c-4 -5 10 -12 31 -16 64 -11 71 -21 37 -56 -47 -50 -212
-155 -326 -209 -115 -54 -279 -110 -409 -141 -216 -50 -574 -70 -900 -51 -189
11 -464 36 -505 46 -23 6 -35 15 116 -85 125 -83 214 -162 278 -247 59 -79 87
-146 102 -247 l11 -72 -64 -65 c-81 -83 -111 -142 -116 -232 -4 -60 -1 -75 27
-132 46 -94 160 -184 265 -209 15 -4 26 -10 22 -13 -8 -8 50 -47 93 -61 59
-20 113 -15 162 17 25 15 97 86 161 157 144 161 250 261 316 297 31 17 103 39
184 57 259 56 414 119 497 200 85 85 152 242 190 448 30 164 35 224 18 246
-15 21 -46 16 -74 -12 -15 -16 -16 -14 -10 33 4 28 10 103 14 168 3 64 9 117
12 117 4 0 27 -20 51 -45 24 -25 52 -45 62 -45 49 0 -8 85 -82 123 -58 29
-153 46 -163 29z m-18 -249 c-70 -218 -334 -371 -754 -440 -155 -25 -605 -25
-715 0 -95 21 -230 87 -266 130 l-27 32 24 4 c13 2 123 -2 244 -8 309 -17 607
2 835 51 194 42 454 147 605 246 33 21 61 35 63 30 2 -4 -2 -25 -9 -45z"/>
<path d="M5632 5399 c-24 -4 -69 -20 -100 -34 -51 -24 -60 -25 -107 -14 -28 6
-71 9 -96 5 -24 -3 -120 -10 -214 -15 -256 -12 -379 -54 -491 -165 -101 -101
-162 -263 -130 -341 l16 -37 -63 6 c-34 3 -120 8 -192 12 -122 6 -132 5 -156
-15 -18 -14 -31 -38 -39 -71 -13 -55 -30 -66 -83 -55 -42 9 -64 30 -78 74 -23
72 -88 112 -145 91 -64 -25 -94 -81 -79 -150 8 -36 60 -100 81 -100 19 0 18
24 -2 41 -23 19 -44 64 -44 94 0 39 16 62 50 74 43 14 77 -1 95 -44 8 -19 22
-51 30 -70 17 -40 54 -59 100 -51 16 3 35 2 41 -2 6 -4 18 -42 27 -85 9 -44
21 -85 27 -92 6 -7 45 -16 89 -19 74 -7 80 -9 90 -34 23 -56 28 -57 385 -59
181 -2 334 -7 340 -12 22 -17 92 -49 124 -56 18 -4 45 -18 60 -32 68 -63 172
-80 270 -45 47 17 65 20 93 12 18 -6 53 -10 77 -10 24 0 41 -4 38 -8 -9 -15
25 -54 60 -68 70 -29 139 -10 228 65 32 28 55 40 65 35 9 -3 37 -9 64 -12 37
-4 52 -10 67 -33 22 -31 76 -53 106 -43 50 16 70 34 110 95 72 113 48 109 582
109 499 0 522 2 522 55 0 19 -9 31 -34 46 -38 22 -49 53 -48 128 1 66 -12 89
-50 95 -18 3 -143 10 -278 16 -325 14 -599 29 -631 36 -22 4 -29 13 -39 52
-14 58 -70 182 -81 182 -5 0 -9 7 -9 16 0 9 -19 54 -41 100 -60 122 -155 221
-262 274 -123 61 -238 80 -345 59z m343 -119 c62 -30 151 -118 192 -190 65
-113 112 -350 98 -494 -9 -94 -30 -188 -54 -234 -35 -68 -137 -102 -217 -72
-29 12 -29 18 -4 170 13 83 11 219 -4 277 -23 86 -87 231 -114 258 -18 18 -36
25 -64 25 l-39 0 41 -54 c147 -195 141 -517 -14 -649 -56 -48 -120 -71 -193
-72 -66 0 -75 3 -100 27 l-27 27 30 88 c25 76 29 102 28 193 -1 89 -5 120 -32
200 -54 166 -47 155 -92 155 -22 0 -40 -3 -40 -8 0 -4 19 -52 41 -105 50 -118
59 -191 34 -278 -37 -128 -100 -208 -183 -229 -99 -26 -196 15 -260 110 -33
49 -34 51 -27 135 7 97 -5 155 -56 270 l-32 72 -14 -27 c-30 -56 -97 -55 -137
3 -69 100 -62 168 25 246 73 67 132 87 282 96 73 5 176 19 230 31 91 21 104
22 170 9 128 -23 142 -23 193 0 102 47 117 50 204 47 65 -2 97 -9 135 -27z"/>
<path d="M7426 4638 c-10 -15 -16 -45 -16 -85 0 -54 4 -67 28 -93 21 -24 38
-32 80 -37 l52 -6 -21 48 c-15 34 -21 69 -21 114 0 38 -5 69 -12 73 -24 16
-75 8 -90 -14z"/>
</g>
</svg>
